<?xml version="1.0" encoding="utf-8"?>
<!-- Generator: Adobe Illustrator 24.2.1, SVG Export Plug-In . SVG Version: 6.00 Build 0)  -->
<svg version="1.1" id="Layer_1" xmlns="http://www.w3.org/2000/svg" xmlns:xlink="http://www.w3.org/1999/xlink" x="0px" y="0px"
	 viewBox="0 0 250 58" style="enable-background:new 0 0 250 58;" xml:space="preserve">
<style type="text/css">
	.st0{fill-rule:evenodd;clip-rule:evenodd;}
	.st1{fill-rule:evenodd;clip-rule:evenodd;fill:#EC1C24;}
</style>
<path class="st0" d="M86.9,13.6l2.8-10.5c0.1-0.2,0-0.4-0.1-0.6c-0.1-0.2-0.3-0.3-0.6-0.3H75.3c-0.1,0-0.3,0-0.4,0.1
	c-0.1,0.1-0.2,0.2-0.2,0.4l-2.9,10.8H86.9L86.9,13.6z"/>
<path class="st0" d="M70.4,18.6L70,20.1l-0.2,0.7h0l-1,3.9c-0.4,1.6-1,2.8-1.8,3.5c-0.8,0.8-1.8,1.1-3.1,1.1c-1,0-1.7-0.2-2.2-0.6
	c-0.5-0.4-0.8-1-0.8-1.9c0-0.2,0-0.5,0.1-0.9c0.1-0.4,0.2-0.8,0.3-1.4l1.5-5.5l0-0.1l-15.3,0.5l-0.4,1.5l-1,3.5
	c-0.4,1.5-0.7,2.8-0.9,3.6c-0.1,0.9-0.2,1.7-0.2,2.5c0,3,1.3,5.1,4,6.5c2.7,1.3,7,2,13,2c4.1,0,7.5-0.3,10.2-1
	c2.7-0.6,4.9-1.6,6.7-3c1-0.8,1.8-1.9,2.5-3.3c0.7-1.4,1.5-3.7,2.4-6.9l0.7-2.8l0,0l1-3.8L70.4,18.6L70.4,18.6z"/>
<path class="st0" d="M64.3,13.6l0.3-1.3l2.5-9.2c0.1-0.2,0-0.4-0.1-0.6c-0.1-0.2-0.3-0.3-0.6-0.3H52.7c-0.1,0-0.3,0-0.4,0.1
	c-0.1,0.1-0.2,0.2-0.2,0.4l-2.9,10.8H64.3L64.3,13.6z"/>
<path class="st0" d="M129.7,13.6l0.6-2.4l2.1-8c0.1-0.2,0-0.4-0.1-0.6c-0.1-0.2-0.3-0.3-0.6-0.3h-13.4c-0.1,0-0.3,0-0.4,0.1
	c-0.1,0.1-0.2,0.2-0.2,0.4l-2.9,10.8H129.7L129.7,13.6z"/>
<path class="st0" d="M128.9,16.8l-15,0.5l-0.6,2.6c-0.1,0.3-0.1,0.5-0.2,0.7l-0.1,0.3h0c-0.3,1.3-0.6,2.4-0.7,3.4
	c-0.2-1.8-0.4-3.1-0.6-4.2c-0.1-1-0.2-1.7-0.3-2l-0.1-0.4l-0.1-0.3l-23.5,0.7l-0.1,0.4h0L82.7,38c-0.1,0.2,0,0.4,0.1,0.6
	c0.1,0.2,0.3,0.3,0.6,0.3h13.2c0.1,0,0.3,0,0.4-0.1c0.1-0.1,0.2-0.2,0.2-0.4l3.6-13.3V25c0.6-2.3,1-4.3,1.3-6.1
	c0.2,1.2,0.5,2.3,0.7,3.3c0.2,1,0.4,1.9,0.6,2.7l2.9,13.5c0,0.2,0.1,0.3,0.2,0.4c0.1,0.1,0.3,0.2,0.4,0.2h15.7c0.1,0,0.3,0,0.4-0.1
	c0.1-0.1,0.2-0.2,0.2-0.4L128.9,16.8L128.9,16.8z"/>
<path class="st0" d="M110.7,13.6l-0.4-2.2L109,2.9c0-0.2-0.1-0.3-0.2-0.4c-0.1-0.1-0.3-0.2-0.5-0.2H92.5c-0.2,0-0.3,0-0.4,0.1
	c-0.1,0.1-0.2,0.2-0.2,0.4l-2.2,8.6l-0.2,0.7L89,13.6H110.7L110.7,13.6z"/>
<path class="st0" d="M208,13.6l2.8-10.5c0.1-0.2,0-0.4-0.1-0.6c-0.1-0.2-0.3-0.3-0.6-0.3h-34.2c-0.1,0-0.3,0-0.4,0.1
	c-0.1,0.1-0.2,0.2-0.2,0.4l-2.1,7.7l0,0l-0.8,3.1H208L208,13.6z"/>
<path class="st0" d="M187.6,15l-15.7,0.5l-5.8,22.6c-0.1,0.2,0,0.4,0.1,0.6c0.1,0.2,0.3,0.3,0.6,0.3h34.1c0.1,0,0.3,0,0.4-0.1
	c0.1-0.1,0.2-0.2,0.2-0.4l2.2-8.4c0.1-0.2,0-0.4-0.1-0.6c-0.1-0.2-0.3-0.3-0.6-0.3h-19.3l1-3.8h19.6c0.2,0,0.3,0,0.4-0.1
	c0.1-0.1,0.2-0.2,0.2-0.4l1.7-6.6c0.1-0.2,0-0.4-0.1-0.6c-0.1-0.2-0.3-0.3-0.6-0.3H187L187.6,15L187.6,15z"/>
<path class="st0" d="M213.6,2.3c-0.1,0-0.3,0-0.4,0.1c-0.1,0.1-0.2,0.2-0.2,0.4l-2.8,10.8h21.6l-14.9,0.5l2.9,0.1l-6.2,24
	c-0.1,0.2,0,0.4,0.1,0.6c0.1,0.2,0.3,0.3,0.6,0.3h13.9c0.2,0,0.3,0,0.4-0.1c0.1-0.1,0.2-0.2,0.2-0.4l6.3-24.5h8.8
	c0.1,0,0.3,0,0.4-0.1c0.1-0.1,0.2-0.2,0.2-0.4l2.6-10.3c0.1-0.2,0-0.4-0.1-0.6c-0.1-0.2-0.3-0.3-0.6-0.3H213.6L213.6,2.3z"/>
<path class="st0" d="M148.5,13.6L148.5,13.6l21.6,0L173,3.2c0.1-0.2,0-0.5-0.1-0.6c-0.1-0.2-0.4-0.3-0.6-0.3h-28.4
	c-2.5,0-5,0.8-7.1,2.4c-2.1,1.6-3.5,3.9-4.1,6.2l-0.7,2.7L148.5,13.6L148.5,13.6z"/>
<path class="st0" d="M161.9,16h-5.1l-25.7,0.8c-0.4,2,0.1,4.1,1.4,5.8c1.4,1.8,3.5,2.8,5.7,2.8h9.9c0.4,0,0.9,0.2,1.2,0.5
	c0.3,0.3,0.5,0.8,0.5,1.2v0.5c0,0.4-0.2,0.8-0.5,1.1c-0.3,0.3-0.7,0.5-1.1,0.5h-19.6c-0.2,0-0.4,0.1-0.6,0.2
	c-0.2,0.1-0.3,0.3-0.4,0.6l-2.1,8.3c-0.1,0.2,0,0.4,0.1,0.6c0.1,0.2,0.3,0.3,0.6,0.3h27.5c3,0,6.1-1,8.6-3c2.5-2,4.2-4.8,4.9-7.7
	l1-4.4c0.4-1.9,0-3.9-1.3-5.5C165.8,16.8,163.9,16,161.9,16L161.9,16z"/>
<path class="st1" d="M47.3,13.6l2.8-10.4c0.1-0.2,0-0.5-0.1-0.6c-0.1-0.2-0.4-0.3-0.6-0.3H21c-2.5,0-5,0.8-7.1,2.4
	c-2.1,1.6-3.5,3.9-4.1,6.2l-0.7,2.7L47.3,13.6L47.3,13.6z"/>
<path class="st0" d="M9.3,20.7l-0.6,0.1c0.2,0.6,0.6,1.2,1,1.8c1.4,1.8,3.5,2.8,5.7,2.8h9.9c0.4,0,0.9,0.2,1.2,0.5
	c0.3,0.3,0.5,0.8,0.5,1.2v0.5c0,0.4-0.2,0.8-0.5,1.1c-0.3,0.3-0.7,0.5-1.1,0.5H5.9c-0.2,0-0.4,0.1-0.6,0.2c-0.2,0.1-0.3,0.3-0.4,0.6
	l-2.1,8.3c-0.1,0.2,0,0.4,0.1,0.6c0.1,0.2,0.3,0.3,0.6,0.3H31c3,0,6.1-1,8.6-3c2.5-2,4.2-4.8,4.9-7.7l1-4.4c0.3-1.5,0.1-3.1-0.6-4.5
	L9.3,20.7L9.3,20.7z"/>
<path d="M123,50.5c0-0.5,0-1,0.1-1.5c0.1-0.5,0.2-0.9,0.4-1.4c0.2-0.4,0.4-0.8,0.6-1.2c0.2-0.4,0.5-0.7,0.8-1c0.3-0.3,0.6-0.6,1-0.8
	c0.3-0.2,0.7-0.4,1.1-0.6c0.4-0.2,0.8-0.3,1.2-0.4c0.4-0.1,0.8-0.1,1.3-0.1c0.6,0,1.1,0.1,1.6,0.2c0.5,0.1,1,0.3,1.4,0.6
	c0.4,0.3,0.8,0.6,1.1,0.9c0.3,0.3,0.6,0.7,0.8,1.2l0.3,0.5l-2.3,0.9l-0.2-0.4c-0.1-0.3-0.3-0.5-0.5-0.7c-0.2-0.2-0.4-0.3-0.6-0.5
	c-0.2-0.1-0.5-0.2-0.8-0.3c-0.3-0.1-0.6-0.1-0.9-0.1c-0.2,0-0.4,0-0.6,0.1c-0.2,0-0.4,0.1-0.6,0.2c-0.2,0.1-0.4,0.2-0.6,0.3
	c-0.2,0.1-0.4,0.2-0.5,0.4v0c-0.2,0.1-0.3,0.3-0.5,0.4c-0.2,0.2-0.3,0.3-0.4,0.5c-0.1,0.2-0.2,0.4-0.3,0.6c-0.1,0.2-0.2,0.4-0.3,0.7
	v0c-0.1,0.2-0.1,0.5-0.2,0.8c0,0.3-0.1,0.5-0.1,0.8c0,0.5,0.1,0.9,0.2,1.3c0.1,0.4,0.3,0.7,0.6,1c0.3,0.3,0.6,0.5,1,0.6
	c0.4,0.1,0.8,0.2,1.3,0.2c0.5,0,0.9-0.1,1.3-0.3c0.4-0.2,0.8-0.5,1.2-0.8l0.3-0.3l1.8,1.4l-0.4,0.4c-0.3,0.3-0.6,0.6-1,0.8
	c-0.3,0.2-0.7,0.4-1.1,0.6v0c-0.4,0.1-0.8,0.3-1.1,0.3c-0.4,0.1-0.8,0.1-1.2,0.1c-0.4,0-0.8,0-1.1-0.1c-0.4-0.1-0.7-0.2-1-0.3
	c-0.3-0.1-0.6-0.3-0.9-0.4c-0.3-0.2-0.6-0.4-0.8-0.6c-0.2-0.2-0.5-0.5-0.7-0.8c-0.2-0.3-0.4-0.6-0.5-0.9c-0.1-0.3-0.2-0.7-0.3-1
	C123,51.2,123,50.9,123,50.5L123,50.5z M136.6,51.6c0-0.1,0-0.3,0-0.5c0-0.2,0-0.3,0.1-0.5l0,0l1.5-7h2.4l-1.6,7.1
	c0,0.2,0,0.3-0.1,0.4c0,0.1,0,0.1,0,0.2h0c0,0.3,0.1,0.6,0.2,0.8c0.1,0.2,0.2,0.5,0.4,0.6c0.2,0.2,0.4,0.3,0.7,0.4
	c0.3,0.1,0.6,0.1,1,0.1c0.4,0,0.8-0.1,1.1-0.2c0.3-0.1,0.5-0.3,0.7-0.5c0.2-0.2,0.4-0.5,0.6-0.9c0.2-0.4,0.3-0.8,0.4-1.3l0,0l1.5-7
	h2.4l-1.6,7.2l0,0c-0.1,0.4-0.2,0.7-0.3,1c-0.1,0.3-0.2,0.6-0.3,0.9c-0.1,0.3-0.3,0.5-0.4,0.8c-0.2,0.3-0.3,0.5-0.5,0.7
	c-0.2,0.2-0.4,0.4-0.7,0.6c-0.3,0.2-0.5,0.3-0.8,0.4l0,0c-0.3,0.1-0.6,0.2-1,0.3c-0.3,0.1-0.7,0.1-1.1,0.1c-0.7,0-1.3-0.1-1.9-0.3
	c-0.6-0.2-1.1-0.5-1.5-0.8c-0.4-0.4-0.7-0.8-1-1.3C136.7,52.8,136.6,52.2,136.6,51.6L136.6,51.6z M217.1,52.9l1.4-1.4l0.4,0.5
	c0.2,0.2,0.4,0.4,0.6,0.6c0.2,0.2,0.5,0.3,0.7,0.5c0.3,0.1,0.6,0.2,0.9,0.3c0.3,0.1,0.6,0.1,1,0.1c0.2,0,0.3,0,0.5,0
	c0.1,0,0.3-0.1,0.4-0.1l0,0c0.1,0,0.2-0.1,0.3-0.2c0.1-0.1,0.2-0.1,0.2-0.2c0.1-0.1,0.1-0.2,0.2-0.2c0.1-0.1,0.1-0.2,0.1-0.2v0
	c0-0.1,0.1-0.2,0.1-0.3c0-0.1,0-0.2,0-0.3c0-0.1,0-0.2,0-0.2c0-0.1-0.1-0.1-0.1-0.2c-0.1-0.1-0.2-0.2-0.3-0.2
	c-0.1-0.1-0.2-0.2-0.3-0.2h0c-0.2-0.1-0.3-0.2-0.5-0.2c-0.2-0.1-0.3-0.1-0.5-0.2c-0.2-0.1-0.4-0.1-0.6-0.2c-0.2-0.1-0.4-0.2-0.6-0.3
	c-0.2-0.1-0.4-0.2-0.6-0.3c-0.2-0.1-0.4-0.2-0.5-0.3l0,0c-0.2-0.1-0.4-0.3-0.5-0.4c-0.2-0.2-0.3-0.3-0.4-0.5v0
	c-0.1-0.2-0.2-0.4-0.3-0.7c-0.1-0.2-0.1-0.5-0.1-0.7c0-0.5,0.1-1,0.3-1.4c0.2-0.4,0.5-0.8,1-1.2c0.4-0.4,0.9-0.6,1.4-0.8
	c0.5-0.2,1.1-0.3,1.7-0.3c0.4,0,0.9,0,1.3,0.1c0.4,0.1,0.8,0.2,1.2,0.4h0c0.4,0.2,0.7,0.4,1,0.6c0.3,0.2,0.6,0.5,0.8,0.8l0.3,0.4
	l-1.6,1.7l-0.4-0.5c-0.1-0.2-0.3-0.4-0.5-0.5c-0.2-0.2-0.4-0.3-0.6-0.4c-0.2-0.1-0.5-0.2-0.8-0.2c-0.3-0.1-0.5-0.1-0.8-0.1
	c-0.3,0-0.5,0-0.7,0.1c-0.2,0.1-0.4,0.2-0.6,0.3l0,0c-0.2,0.1-0.3,0.3-0.4,0.4c-0.1,0.1-0.1,0.3-0.1,0.4c0,0.1,0,0.1,0,0.2
	c0,0.1,0,0.1,0.1,0.2c0.1,0.1,0.1,0.1,0.2,0.2c0.1,0.1,0.2,0.1,0.3,0.2c0.1,0.1,0.2,0.1,0.4,0.2c0.1,0.1,0.3,0.1,0.4,0.2
	c0.2,0.1,0.3,0.1,0.5,0.2c0.1,0.1,0.3,0.1,0.5,0.2c0.2,0.1,0.4,0.1,0.5,0.2c0.2,0.1,0.3,0.2,0.5,0.3c0.2,0.1,0.3,0.2,0.5,0.3
	c0.2,0.1,0.3,0.2,0.4,0.3h0c0.2,0.1,0.3,0.3,0.4,0.4c0.1,0.2,0.2,0.3,0.3,0.5l0,0c0.1,0.2,0.2,0.4,0.2,0.6c0,0.2,0.1,0.4,0.1,0.6
	c0,0.2,0,0.5-0.1,0.7c-0.1,0.2-0.1,0.5-0.2,0.7l0,0c-0.1,0.2-0.2,0.5-0.4,0.7c-0.1,0.2-0.3,0.4-0.5,0.6l0,0
	c-0.2,0.2-0.4,0.4-0.6,0.5c-0.2,0.1-0.5,0.3-0.8,0.4c-0.3,0.1-0.6,0.2-0.9,0.2c-0.3,0.1-0.6,0.1-1,0.1c-0.5,0-1,0-1.5-0.1
	c-0.5-0.1-0.9-0.2-1.4-0.4c-0.4-0.2-0.8-0.4-1.1-0.7c-0.3-0.3-0.6-0.6-0.8-0.9l-0.2-0.3L217.1,52.9L217.1,52.9z M208.1,50.9h3
	l-0.6-3.8L208.1,50.9L208.1,50.9z M202.9,54.7l6.9-11h2.4l2.2,11.8h-2.5l-0.4-2.4h-4.7l-1.5,2.4h-2.8L202.9,54.7L202.9,54.7z
	 M193.7,45.3l0.3-1.6h9.2l-0.5,2.2h-3.4l-2.1,9.6h-2.4L197,46h-3.4L193.7,45.3L193.7,45.3z M183.8,49h2.2c0.3,0,0.6,0,0.9-0.1
	c0.2-0.1,0.5-0.2,0.6-0.4l0,0c0.2-0.2,0.3-0.4,0.4-0.6c0.1-0.2,0.1-0.5,0.1-0.7c0-0.2,0-0.3-0.1-0.5c-0.1-0.1-0.2-0.3-0.3-0.4
	c-0.1-0.1-0.3-0.2-0.4-0.3c-0.2-0.1-0.3-0.1-0.5-0.1h-2.3L183.8,49L183.8,49z M180.1,54.9l2.5-11.2h4.4c0.5,0,0.9,0.1,1.3,0.2
	c0.4,0.1,0.8,0.4,1.2,0.7c0.4,0.3,0.6,0.7,0.8,1.1c0.2,0.4,0.3,0.9,0.3,1.4c0,0.6-0.1,1.1-0.3,1.6c-0.2,0.5-0.5,0.9-0.8,1.3l0,0
	c-0.4,0.4-0.8,0.7-1.3,0.9c-0.3,0.1-0.6,0.2-0.9,0.3l2,4.4h-2.6l-1.8-4.3h-1.5l-0.9,4.3h-2.4L180.1,54.9L180.1,54.9z M168.4,54.9
	l2.5-11.2h8.1l-0.5,2.2h-5.7l-0.5,2.4h5.6l-0.5,2.2h-5.6l-0.6,2.7h5.7l-0.5,2.2h-8.1L168.4,54.9L168.4,54.9z M162.1,54.9l2.5-11.2
	h2.4l-2.6,11.8H162L162.1,54.9L162.1,54.9z M153.4,48.4h2.7c0.2,0,0.3,0,0.4,0c0.1,0,0.2-0.1,0.4-0.1c0.1,0,0.2-0.1,0.3-0.1
	c0.1,0,0.1-0.1,0.2-0.2l0,0c0.1-0.1,0.1-0.2,0.2-0.2c0-0.1,0.1-0.2,0.1-0.2c0-0.1,0-0.2,0.1-0.3c0-0.1,0-0.2,0-0.3
	c0-0.1,0-0.3-0.1-0.4c0-0.1-0.1-0.2-0.2-0.3c-0.1-0.1-0.2-0.2-0.4-0.2c-0.1,0-0.3-0.1-0.5-0.1h-2.6L153.4,48.4L153.4,48.4z
	 M152.3,53.3h2.7c0.3,0,0.6,0,0.8-0.1c0.2-0.1,0.4-0.2,0.6-0.3c0.2-0.2,0.3-0.3,0.4-0.5c0.1-0.2,0.1-0.4,0.1-0.6
	c0-0.2,0-0.3-0.1-0.5v0c0-0.1-0.1-0.2-0.2-0.3c-0.1-0.1-0.2-0.2-0.4-0.2c-0.2-0.1-0.3-0.1-0.5-0.1h-2.7L152.3,53.3L152.3,53.3z
	 M149.6,54.9l2.5-11.2h4.9c0.5,0,0.9,0.1,1.3,0.2c0.4,0.1,0.7,0.3,1.1,0.6c0.3,0.3,0.6,0.6,0.7,1c0.2,0.4,0.2,0.8,0.2,1.2
	c0,0.4-0.1,0.8-0.2,1.2c-0.1,0.4-0.4,0.7-0.7,1.1c-0.3,0.3-0.6,0.6-0.9,0.7c0.1,0.1,0.2,0.2,0.3,0.4c0.2,0.3,0.3,0.5,0.4,0.8
	c0.1,0.3,0.1,0.6,0.1,0.9c0,0.2,0,0.5-0.1,0.7c0,0.2-0.1,0.4-0.2,0.7l0,0c-0.1,0.2-0.2,0.4-0.3,0.6c-0.1,0.2-0.3,0.4-0.4,0.6
	c-0.2,0.2-0.4,0.3-0.6,0.5c-0.2,0.1-0.5,0.3-0.7,0.4h0c-0.3,0.1-0.6,0.2-0.9,0.2c-0.3,0.1-0.6,0.1-1,0.1h-5.6L149.6,54.9L149.6,54.9
	z"/>
</svg>
